<svg aria-hidden="true" style="position: absolute; width: 0; height: 0; overflow: hidden;" version="1.1" xmlns="http://www.w3.org/2000/svg" xmlns:xlink="http://www.w3.org/1999/xlink">
<defs>
<symbol id="icon-choco" viewBox="0 0 31 32">
<path fill="#000" style="fill: var(--color1, #000)" d="M13.045 0.456l8.306 8.316 0.088-0.088c0.174-0.17 0.407-0.267 0.65-0.27s0.478 0.089 0.656 0.255l0.963 0.963c0.337 0.337 0.348 0.85 0.092 1.207l-0.004 0.008-0.158 0.212 6.797 6.797c0.607 0.607 0.607 1.578 0 2.185l-10.406 10.406c-0.607 0.607-1.578 0.607-2.185 0l-4.907-4.907c-0.081 0.103-0.184 0.187-0.3 0.247s-0.244 0.095-0.375 0.103c-0.131 0.007-0.262-0.013-0.384-0.060s-0.234-0.119-0.326-0.212l-2.869-2.869c-0.17-0.174-0.267-0.407-0.27-0.65s0.089-0.478 0.255-0.656l0.007-0.008 0.085-0.084-8.306-8.306c-0.607-0.607-0.607-1.578 0-2.185l10.405-10.405c0.607-0.607 1.578-0.607 2.185 0v0.001zM20.308 9.813l-1.938-1.937c-0.061-0.063-0.134-0.113-0.214-0.147s-0.167-0.052-0.255-0.052c-0.087 0-0.174 0.018-0.255 0.052s-0.154 0.084-0.214 0.147l-3.95 3.95c-0.063 0.062-0.112 0.136-0.146 0.217s-0.051 0.169-0.051 0.257 0.017 0.176 0.051 0.257c0.034 0.081 0.084 0.155 0.146 0.217l1.93 1.93 0.673-0.673-1.727-1.727 3.542-3.553 1.731 1.737 0.676-0.676zM14.707 15.41l-1.935-1.935c-0.061-0.063-0.134-0.113-0.214-0.147s-0.167-0.052-0.255-0.052c-0.088 0-0.174 0.018-0.255 0.052s-0.153 0.084-0.214 0.147l-3.961 3.961c-0.265 0.254-0.265 0.673 0 0.938l1.933 1.933 0.68-0.68-1.732-1.726 3.553-3.542 1.726 1.725 0.675-0.674zM7.528 6.834l3.95 3.95c0.265 0.265 0.684 0.265 0.938-0.011l3.95-3.95c0.063-0.060 0.113-0.132 0.147-0.211s0.052-0.165 0.052-0.252h0.011c0-0.166-0.066-0.342-0.199-0.474l-3.95-3.95c-0.062-0.063-0.136-0.113-0.217-0.147s-0.169-0.051-0.257-0.051c-0.088 0-0.176 0.018-0.257 0.051s-0.155 0.084-0.217 0.147l-3.95 3.961c-0.265 0.254-0.265 0.673 0 0.938zM1.933 12.428l3.95 3.95c0.265 0.265 0.684 0.265 0.938 0l3.95-3.95c0.064-0.061 0.115-0.135 0.149-0.216s0.051-0.17 0.050-0.258h0.011c0-0.177-0.066-0.342-0.199-0.474l-3.95-3.95c-0.061-0.063-0.134-0.113-0.214-0.147s-0.167-0.052-0.255-0.052c-0.087 0-0.174 0.018-0.255 0.052s-0.153 0.084-0.214 0.147l-3.961 3.961c-0.265 0.254-0.265 0.673 0 0.938zM9.583 22.088l2.606 2.607 10.633-14.389-0.723-0.723-12.516 12.504z"></path>
<path fill="#fd9222" style="fill: var(--color2, #fd9222)" d="M13.045 0.456l8.306 8.316 0.088-0.088c0.174-0.17 0.407-0.267 0.65-0.27s0.478 0.089 0.656 0.255l0.963 0.963c0.337 0.337 0.348 0.85 0.092 1.207l-0.004 0.008-0.158 0.212 6.797 6.797c0.607 0.607 0.607 1.578 0 2.185l-10.406 10.406c-0.607 0.607-1.578 0.607-2.185 0l-4.907-4.907c-0.081 0.103-0.184 0.187-0.3 0.247s-0.244 0.095-0.375 0.103c-0.131 0.007-0.262-0.013-0.384-0.060s-0.234-0.119-0.326-0.212l-2.869-2.869c-0.17-0.174-0.267-0.407-0.27-0.65s0.089-0.478 0.255-0.656l0.007-0.008 0.085-0.084-8.306-8.306c-0.607-0.607-0.607-1.578 0-2.185l10.405-10.405c0.607-0.607 1.578-0.607 2.185 0v0.001zM20.308 9.813l-1.938-1.937c-0.061-0.063-0.134-0.113-0.214-0.147s-0.167-0.052-0.255-0.052c-0.087 0-0.174 0.018-0.255 0.052s-0.154 0.084-0.214 0.147l-3.95 3.95c-0.063 0.062-0.112 0.136-0.146 0.217s-0.051 0.169-0.051 0.257 0.017 0.176 0.051 0.257c0.034 0.081 0.084 0.155 0.146 0.217l1.93 1.93 0.673-0.673-1.727-1.727 3.542-3.553 1.731 1.737 0.676-0.676zM14.707 15.41l-1.935-1.935c-0.061-0.063-0.134-0.113-0.214-0.147s-0.167-0.052-0.255-0.052c-0.088 0-0.174 0.018-0.255 0.052s-0.153 0.084-0.214 0.147l-3.961 3.961c-0.265 0.254-0.265 0.673 0 0.938l1.933 1.933 0.68-0.68-1.732-1.726 3.553-3.542 1.726 1.725 0.675-0.674zM7.528 6.834l3.95 3.95c0.265 0.265 0.684 0.265 0.938-0.011l3.95-3.95c0.063-0.060 0.113-0.132 0.147-0.211s0.052-0.165 0.052-0.252h0.011c0-0.166-0.066-0.342-0.199-0.474l-3.95-3.95c-0.062-0.063-0.136-0.113-0.217-0.147s-0.169-0.051-0.257-0.051c-0.088 0-0.176 0.018-0.257 0.051s-0.155 0.084-0.217 0.147l-3.95 3.961c-0.265 0.254-0.265 0.673 0 0.938zM1.933 12.428l3.95 3.95c0.265 0.265 0.684 0.265 0.938 0l3.95-3.95c0.064-0.061 0.115-0.135 0.149-0.216s0.051-0.17 0.050-0.258h0.011c0-0.177-0.066-0.342-0.199-0.474l-3.95-3.95c-0.061-0.063-0.134-0.113-0.214-0.147s-0.167-0.052-0.255-0.052c-0.087 0-0.174 0.018-0.255 0.052s-0.153 0.084-0.214 0.147l-3.961 3.961c-0.265 0.254-0.265 0.673 0 0.938zM9.583 22.088l2.606 2.607 10.633-14.389-0.723-0.723-12.516 12.504z"></path>
</symbol>
<symbol id="icon-coin" viewBox="0 0 32 32">
<path fill="#fd9222" style="fill: var(--color2, #fd9222)" d="M16 2.667c-7.333 0-13.333 6-13.333 13.333s6 13.333 13.333 13.333c7.333 0 13.333-6 13.333-13.333s-6-13.333-13.333-13.333zM16 26.667c-5.867 0-10.667-4.8-10.667-10.667s4.8-10.667 10.667-10.667c5.867 0 10.667 4.8 10.667 10.667s-4.8 10.667-10.667 10.667z"></path>
<path fill="#fd9222" style="fill: var(--color2, #fd9222)" d="M17.733 14.667h-3.467c-0.667 0-1.2-0.533-1.2-1.2s0.533-1.2 1.2-1.2h4.933c0.8 0 1.333-0.533 1.333-1.333s-0.533-1.333-1.333-1.333h-1.867v-1.2c0-0.8-0.533-1.333-1.333-1.333s-1.333 0.533-1.333 1.333v1.2h-0.4c-2.133 0-3.867 1.733-3.867 3.867s1.733 3.867 3.867 3.867h3.333c0.667 0 1.2 0.533 1.2 1.2s-0.533 1.2-1.2 1.2h-4.933c-0.8 0-1.333 0.533-1.333 1.333s0.533 1.333 1.333 1.333h2v1.2c0 0.8 0.533 1.333 1.333 1.333s1.333-0.533 1.333-1.333v-1.2h0.4c2.133 0 3.867-1.733 3.867-3.867s-1.733-3.867-3.867-3.867z"></path>
</symbol>
<symbol id="icon-spoon" viewBox="0 0 32 32">
<path fill="#fd9222" style="fill: var(--color2, #fd9222)" d="M15.451 14.106c-0.783-0.95-1.177-2.116-1.177-3.282 0-4.324 5.181-8.642 10.362-8.642 2.86 0 5.181 2.321 5.181 5.182 0 5.182-4.317 10.364-8.646 10.364-1.166 0-2.332-0.394-3.281-1.177l-12.758 12.761c-0.675 0.675-1.77 0.675-2.445 0s-0.675-1.771 0-2.445l12.764-12.761z"></path>
</symbol>
<symbol id="icon-choco-logo21" viewBox="0 0 32 32">
<path fill="#fcf1e0" style="fill: var(--color3, #fcf1e0)" d="M3.944 20.076l10.777-17.424 0.64-0.674 8.236 5.491 0.056 3.314 2.010 3.28-8.88 14.077-12.839-8.063z"></path>
<path fill="#fd9222" style="fill: var(--color2, #fd9222)" d="M14.958 0.848c-0.365 0.087-0.666 0.311-0.854 0.613l-0.003 0.006-11.735 19.25c-0.126 0.204-0.201 0.451-0.201 0.715 0 0.488 0.255 0.917 0.639 1.16l0.006 0.003 14.188 8.863c0.206 0.13 0.457 0.207 0.725 0.207 0.493 0 0.926-0.26 1.167-0.651l0.003-0.006 3.905-6.402c-0.003 0.006-0.002 0.004-0.001 0.002l0.004-0.008 5.548-9.098c0.126-0.204 0.201-0.451 0.201-0.715 0-0.488-0.255-0.917-0.639-1.16l-0.006-0.003c-1.452-0.907-2.255-1.66-2.479-2.182s-0.222-1.115 0.643-2.533c0.126-0.204 0.201-0.451 0.201-0.715 0-0.488-0.255-0.917-0.639-1.16l-0.006-0.003-9.625-6.015c-0.206-0.13-0.456-0.207-0.724-0.207-0.113 0-0.222 0.014-0.327 0.039l0.009-0.002zM15.723 4.080l4.765 2.976-2.485 4.074-4.765-2.979zM22.815 8.512l0.399 0.247c-0.55 1.333-0.797 2.634-0.31 3.768 0.476 1.108 1.39 1.89 2.44 2.634l-0.247 0.405-4.768-2.979zM11.81 10.497l4.765 2.976-2.482 4.074-4.765-2.976zM18.902 14.929l4.768 2.979-2.485 4.074-4.765-2.979zM7.899 16.914l4.765 2.976-2.482 4.077-4.768-2.979zM14.991 21.345l4.768 2.979-2.485 4.074-4.768-2.979z"></path>
</symbol>
<symbol id="icon-mob-burger" viewBox="0 0 32 32">
<path d="M3.498 6.936c-0.218 0.065-0.503 0.358-0.566 0.582-0.032 0.145-0.050 0.312-0.050 0.482s0.018 0.337 0.053 0.498l-0.003-0.016c0.066 0.235 0.349 0.515 0.591 0.585 0.25 0.072 24.699 0.072 24.959 0 0.235-0.066 0.515-0.349 0.585-0.591 0.032-0.143 0.051-0.308 0.051-0.477s-0.018-0.333-0.053-0.492l0.003 0.015c-0.070-0.242-0.35-0.525-0.585-0.591-0.239-0.066-24.762-0.064-24.984 0.003zM3.498 14.936c-0.218 0.065-0.503 0.358-0.566 0.582-0.032 0.145-0.050 0.312-0.050 0.482s0.018 0.337 0.053 0.498l-0.003-0.016c0.066 0.235 0.349 0.515 0.591 0.585 0.25 0.072 24.699 0.072 24.959 0 0.235-0.066 0.515-0.349 0.585-0.591 0.032-0.143 0.051-0.308 0.051-0.477s-0.018-0.333-0.053-0.492l0.003 0.015c-0.070-0.242-0.35-0.525-0.585-0.591-0.239-0.066-24.762-0.064-24.984 0.003zM3.498 22.936c-0.218 0.065-0.503 0.358-0.566 0.582-0.032 0.145-0.050 0.312-0.050 0.482s0.018 0.337 0.053 0.498l-0.003-0.016c0.066 0.235 0.349 0.515 0.591 0.585 0.25 0.072 24.699 0.072 24.959 0 0.235-0.066 0.515-0.349 0.585-0.591 0.032-0.143 0.051-0.308 0.051-0.477s-0.018-0.333-0.053-0.492l0.003 0.015c-0.070-0.242-0.35-0.525-0.585-0.591-0.239-0.066-24.762-0.064-24.984 0.003z"></path>
</symbol>
<symbol id="icon-scroll-down16" viewBox="0 0 32 32">
<path d="M16.946 17.867c-0.124 0.125-0.271 0.224-0.434 0.292s-0.337 0.103-0.513 0.103c-0.176 0-0.35-0.035-0.513-0.103s-0.31-0.167-0.434-0.292l-6.107-6.12c-0.124-0.125-0.271-0.224-0.434-0.292s-0.337-0.103-0.513-0.103c-0.176 0-0.35 0.035-0.513 0.103s-0.31 0.167-0.434 0.292c-0.248 0.25-0.388 0.588-0.388 0.94s0.139 0.69 0.388 0.94l6.12 6.12c0.75 0.749 1.767 1.17 2.827 1.17s2.077-0.421 2.827-1.17l6.12-6.12c0.246-0.248 0.385-0.584 0.387-0.933 0.001-0.175-0.033-0.349-0.099-0.512s-0.164-0.31-0.288-0.435c-0.124-0.125-0.272-0.224-0.434-0.292s-0.337-0.103-0.513-0.103c-0.176 0-0.35 0.035-0.513 0.103s-0.31 0.167-0.434 0.292l-6.107 6.12z"></path>
</symbol>
<symbol id="icon-scroll-down22" viewBox="0 0 32 32">
<path d="M16.947 17.867c-0.124 0.125-0.271 0.224-0.434 0.292s-0.337 0.103-0.513 0.103-0.35-0.035-0.513-0.103c-0.162-0.068-0.31-0.167-0.434-0.292l-6.107-6.12c-0.124-0.125-0.271-0.224-0.434-0.292s-0.337-0.103-0.513-0.103c-0.176 0-0.35 0.035-0.513 0.103s-0.31 0.167-0.434 0.292c-0.248 0.25-0.388 0.588-0.388 0.94s0.139 0.69 0.388 0.94l6.12 6.12c0.75 0.749 1.767 1.17 2.827 1.17s2.077-0.421 2.827-1.17l6.12-6.12c0.246-0.248 0.385-0.584 0.387-0.933 0.001-0.175-0.033-0.349-0.099-0.512s-0.164-0.31-0.288-0.435c-0.124-0.125-0.271-0.224-0.434-0.292s-0.337-0.103-0.513-0.103-0.35 0.035-0.513 0.103c-0.162 0.068-0.31 0.167-0.434 0.292l-6.107 6.12z"></path>
</symbol>
<symbol id="icon-close-modal24" viewBox="0 0 32 32">
<path d="M7.501 6.727c-0.322 0.196-0.585 0.461-0.772 0.776l-0.006 0.010c-0.069 0.144-0.109 0.312-0.109 0.49 0 0.179 0.041 0.348 0.114 0.5l-0.003-0.007c0.075 0.149 1.313 1.427 3.745 3.864l3.635 3.64-3.635 3.64c-2.432 2.437-3.671 3.715-3.745 3.864-0.235 0.469-0.113 0.977 0.34 1.431s0.961 0.575 1.431 0.34c0.149-0.075 1.427-1.313 3.864-3.745l3.64-3.635 3.64 3.635c2.437 2.432 3.715 3.671 3.864 3.745 0.469 0.235 0.977 0.113 1.431-0.34s0.575-0.961 0.34-1.431c-0.075-0.149-1.313-1.427-3.745-3.864l-3.635-3.64 3.635-3.64c2.432-2.437 3.671-3.715 3.745-3.864 0.235-0.469 0.113-0.977-0.34-1.431s-0.961-0.575-1.431-0.34c-0.149 0.075-1.427 1.313-3.864 3.745l-3.64 3.635-3.64-3.635c-2.437-2.432-3.715-3.671-3.864-3.745-0.145-0.069-0.316-0.109-0.496-0.109-0.181 0-0.353 0.041-0.506 0.114l0.007-0.003z"></path>
</symbol>
<symbol id="icon-close-28" viewBox="0 0 32 32">
<path d="M7.494 6.621c-0.178 0.106-0.333 0.224-0.472 0.359l0.001-0.001c-0.527 0.505-0.657 1.068-0.369 1.567 0.090 0.154 1.537 1.657 3.715 3.857l3.568 3.604-3.6 3.61c-2.806 2.813-3.628 3.665-3.721 3.865-0.243 0.516-0.115 1.039 0.374 1.529 0.49 0.489 1.012 0.617 1.529 0.374 0.199-0.095 1.053-0.916 3.869-3.725l3.613-3.604 3.613 3.604c2.816 2.809 3.67 3.631 3.869 3.725 0.516 0.243 1.039 0.115 1.529-0.374 0.489-0.49 0.617-1.012 0.374-1.529-0.093-0.199-0.915-1.052-3.721-3.865l-3.601-3.61 3.569-3.607c2.135-2.157 3.626-3.706 3.715-3.856 0.294-0.506 0.148-1.088-0.403-1.594-0.489-0.451-0.979-0.563-1.439-0.329-0.143 0.073-1.519 1.398-3.849 3.706-1.994 1.977-3.645 3.587-3.67 3.58-1.29-1.25-2.482-2.421-3.665-3.601l0.007 0.007c-2.298-2.275-3.696-3.622-3.837-3.693-0.146-0.070-0.317-0.111-0.497-0.111-0.182 0-0.354 0.041-0.508 0.115l0.007-0.003z"></path>
</symbol>
<symbol id="icon-instagram" viewBox="0 0 32 32">
<path d="M8.427 1.392c-1.801 0.201-3.392 0.979-4.724 2.311-1.355 1.356-2.112 2.923-2.313 4.788-0.076 0.709-0.076 14.309 0 15.019 0.194 1.827 0.988 3.439 2.179 4.665l-0.002-0.002c1.336 1.393 3.033 2.236 4.903 2.436 0.761 0.081 14.3 0.081 15.061 0 2.94-0.315 5.485-2.273 6.597-5.073 0.222-0.587 0.392-1.271 0.48-1.981l0.004-0.044c0.035-0.331 0.055-3.056 0.055-7.509s-0.020-7.179-0.055-7.509c-0.198-1.826-0.992-3.438-2.181-4.665l0.002 0.002c-1.336-1.393-3.033-2.236-4.903-2.436-0.655-0.071-14.476-0.071-15.104 0zM23.973 4.151c1.013 0.293 1.744 0.712 2.433 1.395 0.719 0.709 1.14 1.433 1.423 2.445l0.144 0.516v14.987l-0.144 0.516c-0.279 0.996-0.7 1.728-1.396 2.424s-1.428 1.117-2.424 1.396l-0.516 0.144h-14.987l-0.453-0.124c-1.028-0.28-1.764-0.701-2.483-1.42s-1.14-1.455-1.42-2.483l-0.124-0.453v-14.987l0.124-0.452c0.501-1.835 1.74-3.187 3.449-3.764 0.864-0.292 0.599-0.283 8.56-0.273l7.387 0.011 0.427 0.123zM23.001 7.361c-0.669 0.137-0.987 0.547-0.995 1.279-0.009 0.884 0.472 1.365 1.353 1.352 0.444-0.007 0.744-0.109 0.965-0.332 0.481-0.481 0.481-1.505 0-1.987-0.272-0.273-0.853-0.409-1.324-0.312zM14.933 9.361c-1.368 0.251-2.559 0.886-3.49 1.787l0.002-0.002c-1.024 0.991-1.64 2.123-1.96 3.6-0.095 0.433-0.093 1.92 0.003 2.4 0.283 1.429 0.982 2.663 1.963 3.604l0.002 0.002c0.928 0.888 1.964 1.436 3.275 1.736 0.548 0.124 2.103 0.124 2.651 0 2.792-0.637 4.789-2.713 5.267-5.476 0.176-1.025 0.028-2.475-0.355-3.467-0.803-2.077-2.645-3.648-4.851-4.133-0.556-0.123-1.981-0.152-2.507-0.052zM16.787 12.027c1.675 0.319 2.939 1.635 3.215 3.349 0.128 0.793-0.003 1.552-0.411 2.384-0.209 0.428-0.324 0.583-0.735 0.993-0.415 0.415-0.561 0.523-0.991 0.729-0.872 0.421-1.596 0.536-2.445 0.388-2.36-0.409-3.836-2.708-3.203-4.992 0.373-1.255 1.298-2.239 2.485-2.688l0.028-0.009c0.392-0.142 0.844-0.225 1.315-0.225 0.262 0 0.518 0.025 0.766 0.074l-0.025-0.004z"></path>
</symbol>
<symbol id="icon-twitter" viewBox="0 0 32 32">
<path d="M21.536 2.667c-0.738 0.044-1.47 0.199-2.169 0.466-1.398 0.534-2.6 1.486-3.44 2.724-0.814 1.199-1.231 2.613-1.24 4.060-1.68-0.125-3.334-0.486-4.846-1.247-1.71-0.861-4.195-3.318-5.417-5.057-0.244-0.345-0.642-0.567-1.091-0.567-0.575 0-1.064 0.364-1.252 0.873l-0.003 0.009c0 0-1.267 3.478-0.906 7.708 0.312 3.651 2.152 7.912 6.732 10.87-2.048 0.96-4.237 1.586-6.518 1.495-0.017-0.001-0.037-0.001-0.057-0.001-0.736 0-1.333 0.597-1.333 1.333 0 0.5 0.275 0.936 0.683 1.164l0.007 0.003c6.367 3.537 13.523 3.567 19.109 0.594s9.539-9.002 9.539-17.094c0-0.001 0-0.002 0-0.003s0-0.002 0-0.003v0c-0.001-0.241-0.046-0.477-0.070-0.716 1.276-1.424 2.244-3.099 2.698-4.964 0.024-0.094 0.037-0.201 0.037-0.312 0-0.736-0.597-1.333-1.333-1.333-0.287 0-0.553 0.091-0.77 0.245l0.004-0.003c-0.982 0.693-2.091 1.165-3.221 1.568-0.857-0.735-1.825-1.33-2.93-1.607-0.726-0.182-1.472-0.25-2.211-0.206zM23.099 5.458c0.922 0.231 1.751 0.738 2.375 1.456 0.246 0.282 0.606 0.46 1.007 0.46 0.137 0 0.268-0.021 0.393-0.059l-0.009 0.003c0.328-0.099 0.597-0.329 0.917-0.448-0.27 0.363-0.498 0.756-0.823 1.076-0.246 0.242-0.398 0.578-0.398 0.95 0 0.088 0.008 0.173 0.025 0.256l-0.001-0.008c0.054 0.284 0.082 0.573 0.083 0.862-0.002 7.238-3.382 12.209-8.128 14.734-3.453 1.838-7.663 2.309-11.87 1.25 1.677-0.49 3.284-1.225 4.747-2.219 0.355-0.243 0.585-0.647 0.585-1.104 0-0.541-0.322-1.007-0.785-1.216l-0.008-0.003c-5.575-2.478-7.075-6.459-7.38-10.039-0.137-1.604 0.043-2.995 0.237-4.148 1.357 1.497 2.899 2.948 4.576 3.792 2.29 1.153 4.83 1.72 7.393 1.654 0.722-0.019 1.299-0.609 1.299-1.333 0-0 0-0 0-0v0-1.333c0-0.002 0-0.005 0-0.008s0-0.005-0-0.008v0c-0.013-0.951 0.265-1.883 0.799-2.669s1.297-1.39 2.185-1.729 1.859-0.397 2.781-0.167z"></path>
</symbol>
<symbol id="icon-ukraine-flag" viewBox="0 0 46 32">
<path fill="#005bbb" style="fill: var(--color1, #005bbb)" d="M2.525 0h40.942c1.392 0 2.525 1.133 2.525 2.525v26.942c0 1.392-1.142 2.525-2.525 2.525h-40.942c-1.383 0.008-2.525-1.125-2.525-2.517v-26.95c0-1.392 1.142-2.525 2.525-2.525v0z"></path>
<path fill="#ffd500" style="fill: var(--color2, #ffd500)" d="M0 16h46v13.475c0 1.392-1.142 2.525-2.525 2.525h-40.95c-1.383 0-2.525-1.133-2.525-2.525v-13.475z"></path>
</symbol>
<symbol id="icon-mastercard" viewBox="0 0 50 32">
<path fill="#ed0006" style="fill: var(--color1, #ed0006)" d="M25.143 28.078c-2.656 2.194-6.102 3.518-9.867 3.518-8.401 0-15.211-6.593-15.211-14.726s6.81-14.726 15.211-14.726c3.765 0 7.21 1.324 9.867 3.518 2.656-2.194 6.102-3.518 9.866-3.518 8.401 0 15.211 6.593 15.211 14.726s-6.81 14.726-15.211 14.726c-3.765 0-7.21-1.324-9.867-3.518z"></path>
<path fill="#f9a000" style="fill: var(--color2, #f9a000)" d="M25.143 28.078c3.271-2.701 5.344-6.72 5.344-11.208s-2.074-8.507-5.344-11.208c2.656-2.194 6.102-3.518 9.866-3.518 8.401 0 15.211 6.593 15.211 14.726s-6.81 14.726-15.211 14.726c-3.765 0-7.21-1.324-9.867-3.518z"></path>
<path fill="#ff5e00" style="fill: var(--color3, #ff5e00)" d="M25.143 28.078c3.271-2.701 5.344-6.72 5.344-11.208s-2.074-8.507-5.344-11.208c-3.271 2.701-5.344 6.72-5.344 11.208s2.074 8.507 5.344 11.208z"></path>
</symbol>
</defs>
</svg>
